<?xml version="1.0" standalone="no"?><!DOCTYPE svg PUBLIC "-//W3C//DTD SVG 1.1//EN" "http://www.w3.org/Graphics/SVG/1.1/DTD/svg11.dtd"><svg t="1676131403541" class="icon" viewBox="0 0 1024 1024" version="1.1" xmlns="http://www.w3.org/2000/svg" p-id="5055" width="64" height="64" xmlns:xlink="http://www.w3.org/1999/xlink"><path d="M387 210.7m-88 0a88 88 0 1 0 176 0 88 88 0 1 0-176 0Z" fill="#0074FF" p-id="5056"></path><path d="M387 301.2c-49.9 0-90.5-40.6-90.5-90.5s40.6-90.5 90.5-90.5 90.5 40.6 90.5 90.5-40.6 90.5-90.5 90.5z m0-176c-47.1 0-85.5 38.4-85.5 85.5s38.4 85.5 85.5 85.5 85.5-38.4 85.5-85.5-38.4-85.5-85.5-85.5z" fill="#333333" p-id="5057"></path><path d="M637.4 231.8m-66.9 0a66.9 66.9 0 1 0 133.8 0 66.9 66.9 0 1 0-133.8 0Z" fill="#0074FF" p-id="5058"></path><path d="M637.4 301.2c-38.3 0-69.4-31.1-69.4-69.4s31.1-69.4 69.4-69.4c38.3 0 69.4 31.1 69.4 69.4s-31.1 69.4-69.4 69.4z m0-133.8c-35.5 0-64.4 28.9-64.4 64.4s28.9 64.4 64.4 64.4c35.5 0 64.4-28.9 64.4-64.4s-28.8-64.4-64.4-64.4z" fill="#333333" p-id="5059"></path><path d="M511.3 207c-33-1-94.6 0.8-118 59.7-18 45.3-13.7 88.3-14.7 108-1 19.7-12.5 45.3 5.4 65.7 17.9 20.3 61.1 33 126.6 33s98.7-9.3 119-38c20.3-28.7 4.3-54 4-63.3-0.3-9.3 7.3-81.7-28-121-35.3-39.4-68.3-43.3-94.3-44.1z" fill="#0086FF" p-id="5060"></path><path d="M510.7 475.8c-63.6 0-109.2-12-128.5-33.8-14.2-16.2-11-35.2-8.1-52.1 0.9-5.5 1.8-10.6 2.1-15.4 0.2-3.7 0.2-8.3 0.2-13.6 0-23.1-0.1-58.1 14.7-95.2 10.4-26.3 29.6-44.4 56.9-53.7 22.5-7.7 45.8-8.1 63.5-7.5 29.8 0.9 62.1 7 96.1 44.8 31.8 35.4 29.5 96.7 28.8 116.9-0.1 2.6-0.2 4.7-0.1 5.7 0.1 1.8 0.9 4.7 1.9 8 3.8 12.6 10.1 33.7-6.4 56.9-20.3 28.4-53.1 39-121.1 39z m-8.9-266.5c-38.1 0-86.1 7.9-106.1 58.2-14.4 36.2-14.3 70.6-14.3 93.3 0 5.4 0 10.1-0.2 13.9-0.3 5.1-1.2 10.4-2.1 16-2.8 16.5-5.7 33.6 6.9 47.9 10.6 12 40.9 32.1 124.7 32.1 66.2 0 97.9-10 117-36.9 15-21.2 9.4-40.1 5.7-52.5-1.1-3.8-2-6.8-2.1-9.2 0-1.2 0-3.2 0.1-6.1 0.7-19.7 2.9-79.5-27.5-113.4-34.4-38.3-65.8-42.4-92.6-43.2-3.1 0-6.3-0.1-9.5-0.1z" fill="#333333" p-id="5061"></path><path d="M443.7 467.7s-21.3 58.6-25 65c-3.7 6.3-37.1 94-34.5 114.3s80.2-4 86.5 10.7c14.5 33.5-13.3 73 38 73s29.8-46.3 37.7-65.8c7.7-18.9 52.3-7.2 81.7-13.9s-15.7-98-23-113-29.2-70-29.2-70l-132.2-0.3z" fill="#0086FF" p-id="5062"></path><path d="M508.7 733.2c-13.5 0-22.7-2.7-28.3-8.3-7.5-7.6-7.5-19.4-7.4-31.9 0.1-10.8 0.2-23.1-4.7-34.3-2.2-5.1-21.8-3.5-37.6-2.1-23.4 2-47.5 4.1-49.2-9.2-2.6-21.1 30.5-108.3 34.9-115.9 2.9-5 18.9-48.3 24.8-64.6l0.6-1.6 135.5 0.3 0.6 1.6c0.2 0.5 21.9 55.1 29.1 69.8l0.2 0.5c19 38.9 39.8 89.2 30.6 108.4-2 4.1-5.2 6.7-9.5 7.7-11.3 2.6-24.5 2.5-37.3 2.4-19.7-0.1-38.4-0.2-42.6 10-2.1 5.1-1.9 12.6-1.8 20.6 0.3 13 0.6 27.7-8.7 37.2-6 6.3-15.7 9.4-29.2 9.4z m-55.1-83c9.9 0 17.2 1.5 19.4 6.5 5.2 12.2 5.1 25 5.1 36.3-0.1 11.9-0.2 22.2 5.9 28.3 4.6 4.6 12.7 6.9 24.7 6.9 12.2 0 20.6-2.6 25.9-8 7.8-8 7.6-21 7.3-33.6-0.2-8.5-0.3-16.6 2.1-22.6 5.4-13.4 25.7-13.2 47.2-13.1 12.5 0.1 25.5 0.2 36.2-2.3 2.8-0.6 4.8-2.3 6.1-5 6.4-13.3-4.8-51.3-30.6-104l-0.2-0.5c-6.7-13.7-25-59.3-28.7-68.6l-128.7-0.3c-3.6 9.8-21.2 57.8-24.6 63.7-3.4 5.8-36.7 93.2-34.2 112.8 1.1 8.5 24.8 6.5 43.8 4.9 8.5-0.7 16.5-1.4 23.3-1.4z" fill="#333333" p-id="5063"></path><path d="M366 791.5s20.2-110.6 28.5-119.8c12.2-13.5 44.5-16.3 55.2-12.5 8.5 3 23.5 11 24.5 21.5S484 800 484 800s-20-26.5-55.5-25.5-62.5 17-62.5 17z" fill="#0086FF" p-id="5064"></path><path d="M487.2 808.4l-5.2-6.9c-0.2-0.3-19.7-25.4-53.4-24.5-34.5 1-61 16.5-61.3 16.7l-4.7 2.8 1-5.4c0.1-0.3 5.1-28 11.1-56.5 12.3-58.2 16.6-62.9 18-64.5 13.1-14.5 46.3-17.3 57.9-13.2 2.6 0.9 9.4 3.6 15.7 8.3 6.4 4.8 9.9 9.9 10.4 15.3 1 10.4 9.7 118.2 9.8 119.3l0.7 8.6zM430.5 772c25.2 0 42.4 13.1 50.4 20.9-2-24.6-8.3-103.1-9.2-111.9-0.9-9.3-15.3-16.7-22.8-19.4-10.4-3.7-41.4-0.5-52.6 11.8-5.5 6-19 70.7-27 113.4 9.3-4.6 31.5-14.1 59-14.9 0.8 0.1 1.5 0.1 2.2 0.1z" fill="#333333" p-id="5065"></path><path d="M656.5 791.5S636.3 680.9 628 671.7c-12.2-13.5-44.5-16.3-55.2-12.5-8.5 3-23.5 11-24.5 21.5S538.5 800 538.5 800s20-26.5 55.5-25.5 62.5 17 62.5 17z" fill="#0086FF" p-id="5066"></path><path d="M535.3 808.4l0.7-8.6c0.1-1.1 8.8-108.9 9.8-119.3 0.5-5.4 4-10.5 10.4-15.3 6.3-4.7 13.1-7.4 15.7-8.3 11.6-4.1 44.8-1.3 57.9 13.2 1.4 1.5 5.7 6.2 18 64.5 6 28.5 11.1 56.2 11.1 56.5l1 5.4-4.7-2.8c-0.3-0.2-26.9-15.7-61.3-16.7-33.8-1-53.2 24.3-53.4 24.5l-5.2 6.9z m49.8-148.2c-4.7 0-8.8 0.5-11.5 1.4-7.5 2.7-22 10.1-22.8 19.4-0.8 8.8-7.2 87.4-9.2 111.9 8.2-8 26.2-21.7 52.5-20.9 27.5 0.8 49.7 10.2 59 14.9-7.9-42.7-21.5-107.4-27-113.4-8.3-9.2-27.4-13.3-41-13.3z" fill="#333333" p-id="5067"></path><path d="M366 791.5s-8.5 13-7.3 23.3c1.2 10.3 9.8 22.8 61 21.2s63.7-16.3 64.3-24.8-11.9-35.6-58.3-36.6c-38.4-0.8-59.7 16.9-59.7 16.9z" fill="#0074FF" p-id="5068"></path><path d="M410.6 838.7c-35.3 0-52.6-7.6-54.4-23.5-1.3-11.1 7.4-24.4 7.7-25l0.2-0.3 0.3-0.2c0.9-0.7 22.5-18.3 61.3-17.5 28.8 0.6 44.1 10.9 51.9 19.5 6.7 7.4 9.3 15.2 8.9 19.8-0.5 5.9-6.6 25.2-66.7 27.1-3.2 0-6.3 0.1-9.2 0.1z m-42.7-45.5c-1.3 2-7.7 12.9-6.7 21.4 0.5 4.9 2.2 19.1 49.7 19.1 2.8 0 5.7 0 8.7-0.1 58.6-1.9 61.8-20.4 61.9-22.5 0.2-2.8-1.6-9.4-7.6-16-7.1-7.8-21.2-17.3-48.3-17.8-34.5-0.9-55.1 13.9-57.7 15.9z" fill="#333333" p-id="5069"></path><path d="M654.9 791.5s8.5 13 7.3 23.3c-1.2 10.3-9.8 22.8-61 21.2-51.2-1.7-63.7-16.3-64.3-24.8s11.9-35.6 58.3-36.6c38.3-0.8 59.7 16.9 59.7 16.9z" fill="#0074FF" p-id="5070"></path><path d="M610.2 838.7c-2.9 0-6-0.1-9.1-0.2-60.1-2-66.3-21.3-66.7-27.1-0.4-4.6 2.3-12.4 8.9-19.8 7.7-8.6 23-18.9 51.9-19.5 38.8-0.8 60.4 16.7 61.3 17.5l0.3 0.2 0.2 0.3c0.4 0.6 9 13.9 7.7 25-1.8 16-19.2 23.6-54.5 23.6z m-12.6-61.6h-2.4c-27 0.6-41.2 10-48.3 17.8-6 6.6-7.9 13.2-7.6 16 0.2 2.1 3.3 20.6 61.9 22.5 56.1 1.8 57.9-13.8 58.4-18.9 1-8.4-5.5-19.3-6.7-21.4-2.5-1.9-22.2-16-55.3-16z" fill="#333333" p-id="5071"></path><path d="M314.6 591.4s-26.7 35.7-26.2 53.2c0.6 17.5 5.8 54.1 34.5 50.3s31.9-14.4 31.6-21.9-19.6-39.7 6.3-38.5c25.9 1.2 0.6 32.8 3.2 37.1 2.6 4.3 15 8.6 18.7 3.5 3.7-5.2 4.9-52.4 4.9-52.4s-11.2-24.9-34.8-28.9c-23.6-4.1-38.2-2.4-38.2-2.4z" fill="#0086FF" p-id="5072"></path><path d="M318.9 697.7c-6.5 0-12.1-2-16.9-6.1-13.6-11.5-15.8-36.7-16.2-46.9-0.6-18.2 25.6-53.3 26.7-54.8l0.6-0.9 1.1-0.1c0.6-0.1 15.3-1.7 39 2.3 24.6 4.2 36.2 29.3 36.7 30.4l0.2 0.5v0.6c-0.3 11.3-1.5 48.5-5.4 53.9-1.7 2.4-4.7 3.5-8.5 3.4-5.7-0.2-12.3-3.5-14.4-7-1.4-2.4 0.2-5.9 2.8-11.7 2.9-6.5 7.4-16.2 4.5-20.8-1.3-2-4.1-3.2-8.5-3.4-4.7-0.2-7.9 0.8-9.4 2.9-3.6 4.9 0.4 16.2 3.1 23.7 1.4 4 2.6 7.2 2.6 9.3 0.5 13.4-10.5 21.4-33.8 24.4-1.3 0.2-2.8 0.3-4.2 0.3z m-3-103.9c-1.8 2.5-7.2 10.1-12.5 18.9-8.4 14.1-12.7 25.1-12.5 31.8 0.3 9.6 2.3 33.1 14.4 43.3 4.7 4 10.4 5.5 17.3 4.6 26.9-3.5 29.7-12.7 29.5-19.3-0.1-1.4-1.2-4.7-2.4-7.8-3.2-9-7.6-21.3-2.4-28.4 2.6-3.5 7.2-5.2 13.7-4.9 6.1 0.3 10.3 2.2 12.5 5.7 4.2 6.9-0.5 17.2-4.2 25.5-1.2 2.6-2.8 6.1-2.9 7.3 1.4 1.9 6.1 4.2 10.1 4.3 1.2 0 3.3-0.1 4.2-1.3 2-3 3.8-27.9 4.4-50.4-1.7-3.4-12.5-23.5-32.7-27-19.4-3.2-32.7-2.6-36.5-2.3z" fill="#333333" p-id="5073"></path><path d="M707.9 591.4s26.7 35.7 26.2 53.2c-0.6 17.5-5.8 54.1-34.5 50.3-28.8-3.7-31.9-14.4-31.6-21.9 0.3-7.5 19.6-39.7-6.3-38.5s-0.6 32.8-3.2 37.1c-2.6 4.3-15 8.6-18.7 3.5-3.7-5.2-4.9-52.4-4.9-52.4s11.2-24.9 34.8-28.9c23.6-4.1 38.2-2.4 38.2-2.4z" fill="#0086FF" p-id="5074"></path><path d="M703.6 697.7c-1.4 0-2.8-0.1-4.3-0.3-23.3-3-34.3-11-33.8-24.4 0.1-2.1 1.2-5.3 2.6-9.3 2.7-7.5 6.7-18.8 3.1-23.7-1.6-2.1-4.7-3.1-9.4-2.9-4.4 0.2-7.2 1.3-8.5 3.4-2.8 4.6 1.6 14.4 4.5 20.8 2.6 5.8 4.2 9.3 2.8 11.7-2.1 3.6-8.7 6.8-14.4 7-3.8 0.2-6.8-1-8.5-3.4-3.9-5.4-5.1-42.6-5.4-53.9v-0.6l0.2-0.5c0.5-1.1 12-26.1 36.7-30.4 23.7-4.1 38.3-2.4 39-2.3l1.1 0.1 0.6 0.9c1.1 1.5 27.3 36.6 26.7 54.8-0.3 10.3-2.6 35.4-16.2 46.9-4.7 4.1-10.4 6.1-16.8 6.1zM662.9 632c5.7 0 9.8 1.7 12.3 4.9 5.2 7.1 0.8 19.4-2.4 28.4-1.1 3.2-2.3 6.5-2.4 7.8-0.3 6.6 2.5 15.8 29.5 19.3 6.9 0.9 12.6-0.6 17.3-4.6 12-10.2 14.1-33.7 14.4-43.3 0.2-6.7-4.1-17.7-12.5-31.8-5.3-8.9-10.7-16.4-12.5-18.9-3.7-0.3-17.1-1-36.5 2.4-20.2 3.5-31 23.6-32.7 27 0.6 22.6 2.4 47.5 4.4 50.4 0.9 1.3 3 1.4 4.2 1.3 4-0.2 8.7-2.5 10.1-4.3-0.1-1.2-1.7-4.7-2.9-7.3-3.8-8.3-8.5-18.6-4.2-25.5 2.2-3.5 6.4-5.5 12.5-5.7 0.5-0.1 1-0.1 1.4-0.1z" fill="#333333" p-id="5075"></path><path d="M404.6 455.3s-12.4 0.3-20.5 5.6-37.8 39.5-53.8 63.8c-16 24.3-33 59.7-30 70 3 10.3 6-11 40.7-3.3s46.6 31.3 46.6 31.3 18.8-65.8 27.4-83.7c8.6-17.9 28.7-71.3 28.7-71.3l-39.1-12.4z" fill="#0074FF" p-id="5076"></path><path d="M388.3 629.5l-2.9-5.7c-0.1-0.2-11.9-22.7-44.9-30-20.2-4.5-28.8 1.2-33.4 4.2-2.1 1.4-3.9 2.6-5.9 1.8-1.9-0.7-2.7-2.6-3.2-4.5-3.6-12.3 16-50.3 30.3-72.1 15.7-23.9 45.9-58.9 54.5-64.5 8.6-5.6 21.3-6 21.8-6h0.4l42 13.3-0.9 2.5c-0.8 2.2-20.2 53.7-28.8 71.5-8.4 17.5-27 82.6-27.2 83.3l-1.8 6.2z m-61.5-42.4c4.2 0 9.1 0.5 14.7 1.8 26 5.8 39.6 20.2 45.2 27.8 4.7-16.1 18.7-63.7 26-78.8 7.4-15.4 23.6-57.9 27.7-68.6l-36.2-11.5c-2.1 0.1-12.1 0.8-18.8 5.2-7.3 4.8-36.8 38.4-53.1 63.1-17.9 27.3-32.1 59.7-29.7 67.9 0.1 0.3 0.2 0.5 0.2 0.7 0.4-0.2 0.9-0.6 1.3-0.9 3.8-2.3 10.4-6.7 22.7-6.7z" fill="#333333" p-id="5077"></path><path d="M617.7 451s13.8 4.5 22 9.9c8.1 5.3 37.8 39.5 53.8 63.8 16 24.3 33 59.7 30 70-3 10.3-6-11-40.7-3.3s-46.6 31.3-46.6 31.3-18.8-65.8-27.4-83.7c-8.6-17.9-33-70.9-33-70.9l41.9-17.1z" fill="#0074FF" p-id="5078"></path><path d="M635.5 629.5l-1.8-6.1c-0.2-0.7-18.8-65.8-27.2-83.3-8.5-17.7-32.7-70.5-33-71l-1.1-2.4 45.2-18.4 0.9 0.3c0.6 0.2 14.3 4.7 22.6 10.2 8.6 5.6 38.8 40.6 54.5 64.5 14.3 21.8 33.9 59.8 30.3 72.1-0.5 1.8-1.3 3.8-3.2 4.5-2 0.8-3.8-0.4-5.9-1.8-4.6-3-13.2-8.7-33.4-4.2-33.1 7.3-44.8 29.8-44.9 30l-3 5.6z m-56.4-160.1c4.8 10.5 24.4 53 31.9 68.5 7.3 15.1 21.3 62.7 26 78.8 5.6-7.6 19.2-22 45.2-27.8 22.2-4.9 32.4 1.7 37.2 4.9 0.4 0.3 0.9 0.6 1.3 0.9 0.1-0.2 0.1-0.4 0.2-0.7 2.4-8.3-11.8-40.6-29.7-67.9-16.2-24.7-45.8-58.3-53.1-63.1-6.6-4.3-17.4-8.2-20.5-9.3l-38.5 15.7z" fill="#333333" p-id="5079"></path><path d="M507 495.8l15.2 46.9c0.3 0.9 1.2 1.6 2.2 1.6h49.3c2.2 0 3.1 2.8 1.3 4.2l-39.9 29c-0.8 0.6-1.1 1.6-0.8 2.6l15.2 46.9c0.7 2.1-1.7 3.9-3.5 2.6l-39.9-29c-0.8-0.6-1.9-0.6-2.7 0l-39.9 29c-1.8 1.3-4.2-0.5-3.5-2.6l15.2-46.9c0.3-0.9 0-2-0.8-2.6l-39.9-29c-1.8-1.3-0.9-4.2 1.3-4.2h49.3c1 0 1.9-0.6 2.2-1.6l15.2-46.9c0.8-2.1 3.8-2.1 4.5 0z" fill="#FFB600" p-id="5080"></path><path d="M462.2 632.4c-1 0-2-0.3-2.8-0.9-1.7-1.2-2.4-3.3-1.7-5.4l15.2-46.8-39.8-28.9c-1.7-1.2-2.4-3.3-1.7-5.4 0.7-2 2.4-3.3 4.6-3.3h49l15.2-46.8c0.7-2 2.4-3.3 4.6-3.3 2.1 0 3.9 1.3 4.6 3.3l15.2 46.8h49.2c2.1 0 3.9 1.3 4.6 3.3 0.7 2 0 4.1-1.7 5.4l-39.8 28.9 15.2 46.8c0.7 2 0 4.1-1.7 5.4-1.7 1.2-3.9 1.2-5.6 0L505 602.6l-40 28.9c-0.8 0.6-1.8 0.9-2.8 0.9z m42.6-34.8c1 0 2 0.3 2.8 0.9l39.4 28.6-15-46.3c-0.6-2 0.1-4.1 1.7-5.4l39.4-28.6h-48.7c-2.1 0-3.9-1.3-4.6-3.3l-15-46.3-15 46.3c-0.6 2-2.5 3.3-4.6 3.3h-48.7l39.4 28.6c1.7 1.2 2.4 3.4 1.7 5.4l-15 46.3 39.4-28.6c0.8-0.6 1.8-0.9 2.8-0.9z" fill="#333333" p-id="5081"></path><path d="M553.2 516.8l-22.4 43.9c-0.5 0.9-0.3 2 0.4 2.7l34.9 34.9c1.6 1.6 0.2 4.2-2 3.9l-48.7-7.7c-1-0.2-2 0.3-2.4 1.2l-22.4 43.9c-1 2-4 1.5-4.3-0.7l-7.7-48.7c-0.2-1-0.9-1.8-1.9-1.9l-48.7-7.7c-2.2-0.3-2.7-3.3-0.7-4.3l43.9-22.4c0.9-0.5 1.4-1.4 1.2-2.4l-7.7-48.7c-0.3-2.2 2.3-3.6 3.9-2l34.9 34.9c0.7 0.7 1.8 0.9 2.7 0.4l43.9-22.4c2-1 4.1 1.1 3.1 3.1z" fill="#FFE600" p-id="5082"></path><path d="M488.6 643.3c-0.3 0-0.5 0-0.8-0.1-2.1-0.3-3.7-1.9-4-4l-7.7-48.6-48.6-7.7c-2.1-0.3-3.7-1.9-4-4-0.3-2.1 0.7-4.1 2.6-5l43.8-22.3-7.7-48.6c-0.3-2.1 0.7-4.1 2.6-5 1.9-1 4.1-0.6 5.6 0.9l34.8 34.8 43.8-22.3c1.9-1 4.1-0.6 5.6 0.9s1.8 3.7 0.9 5.6l-22.3 43.8 34.8 34.8c1.5 1.5 1.8 3.7 0.9 5.6-1 1.9-2.9 2.9-5 2.6l-48.6-7.7-22.3 43.8c-1 1.6-2.6 2.5-4.4 2.5zM429 578.2l48.1 7.6c2.1 0.3 3.7 1.9 4 4l7.6 48.1 22.1-43.4c0.9-1.9 3-2.9 5-2.6l48.1 7.6-34.4-34.4c-1.5-1.5-1.8-3.7-0.9-5.6l22.1-43.4-43.4 22.1c-1.9 0.9-4.1 0.6-5.6-0.9L467.3 503l7.6 48.1c0.3 2.1-0.7 4.1-2.6 5L429 578.2z" fill="#333333" p-id="5083"></path><path d="M692.2 266.4l-37.5-42.2c-0.4-0.5-0.7-1.2-0.6-1.8l3.1-52c0.1-1.2-0.8-2.4-2-2.6l-10.9-2.3c-1.5-0.3-2.9 0.8-3 2.3l-2.1 32.4c-0.1 2.2-2.9 3.2-4.4 1.5l-25.3-28.4c-0.8-0.9-2.2-1.1-3.3-0.4l-9.3 6.1c-1.3 0.8-1.5 2.6-0.5 3.8l40.2 45.7c0.4 0.5 0.7 1.2 0.6 1.8l-4.2 65.2c-0.1 1.5 1.2 2.8 2.7 2.7l11.8-1c1.2-0.1 2.2-1.1 2.3-2.4l2.5-41.9c0.1-2.2 2.9-3.2 4.4-1.5l24.1 27.5c1 1.2 2.8 1.1 3.8 0l7.7-9.1c0.8-1.1 0.8-2.5-0.1-3.4z" fill="#FFE600" p-id="5084"></path><path d="M635.5 300.6c-1.3 0-2.6-0.5-3.5-1.4-1-1-1.6-2.4-1.5-3.9l4.2-65.2-40.2-45.7c-1-1.1-1.4-2.5-1.2-4 0.2-1.4 1-2.7 2.2-3.5l9.3-6.1c2.1-1.4 4.8-1 6.5 0.9l25.3 28.4 2.1-32.5c0.1-1.5 0.8-2.8 2-3.7 1.2-0.9 2.6-1.2 4.1-0.9l10.9 2.3c2.4 0.5 4.1 2.7 4 5.2l-3.1 52 37.5 42.2c1.6 1.9 1.7 4.7 0.1 6.6l-7.7 9.1c-0.9 1.1-2.3 1.8-3.8 1.8-1.4 0-2.9-0.6-3.8-1.7L654.8 253l-2.5 41.9c-0.1 2.5-2.1 4.5-4.6 4.7l-11.8 1h-0.4z m-27.9-125.7l-9.3 6.1 40.2 45.8c0.9 1 1.3 2.3 1.2 3.6l-4.2 65.2 11.9-1 2.5-41.9c0.1-2 1.4-3.8 3.4-4.4 1.9-0.7 4-0.1 5.4 1.4l24.1 27.5 7.7-9.1-37.5-42.2c-0.9-1-1.3-2.3-1.3-3.6l3.1-52-10.9-2.3-2.1 32.5c-0.1 2-1.5 3.8-3.4 4.4-1.9 0.7-4 0.1-5.4-1.4l-25.4-28.6z" fill="#333333" p-id="5085"></path><path d="M345.5 283.2l47.7-59.6c0.8-1 2-1.6 3.3-1.7l72.7-4.1c2.5-0.1 4.4-2.3 4.3-4.8l-0.6-12.7c-0.1-2.6-2.3-4.5-4.9-4.4l-44.5 3.2c-4 0.3-6.5-4.4-3.8-7.5l29.9-35.4c1.6-1.9 1.4-4.7-0.4-6.3l-8.3-7.6c-1.9-1.8-4.9-1.6-6.6 0.4l-49 58.3c-0.8 0.9-1.9 1.5-3.1 1.6l-78.7 6.9c-2.8 0.2-4.7 2.9-4.1 5.6l2.8 11.5c0.5 2.2 2.6 3.7 4.9 3.5l47.2-4.4c4.1-0.4 6.6 4.4 3.9 7.5l-30.3 36.1c-1.7 2-1.4 5 0.7 6.6l10.4 8c2.1 1.6 4.9 1.2 6.5-0.7z" fill="#FFE600" p-id="5086"></path><path d="M341.9 287.4c-1.5 0-3-0.5-4.3-1.5l-10.4-8c-1.5-1.2-2.5-2.9-2.7-4.8-0.2-1.9 0.4-3.8 1.6-5.3l30.3-36.1c0.8-1 0.4-2 0.2-2.3-0.2-0.3-0.7-1.2-2-1.1l-47.2 4.4c-3.5 0.3-6.7-2-7.5-5.4l-2.8-11.5c-0.5-2-0.1-4.1 1.1-5.8s3.1-2.7 5.1-2.9l78.7-6.9c0.5 0 1.1-0.3 1.4-0.7l48.9-58.3c1.3-1.5 3-2.4 5-2.5 1.9-0.1 3.8 0.5 5.2 1.8l8.3 7.6c2.8 2.6 3.1 6.9 0.6 9.8l-29.9 35.4c-0.8 1-0.4 2-0.3 2.3 0.1 0.3 0.7 1.2 2 1.1l44.5-3.2c1.9-0.1 3.8 0.5 5.2 1.8 1.4 1.3 2.3 3 2.4 5l0.6 12.7c0.2 3.9-2.8 7.2-6.7 7.4l-72.7 4.1c-0.6 0-1.1 0.3-1.5 0.8l-47.7 59.6c-1.3 1.6-3.4 2.5-5.4 2.5z m12.9-64.2c2.6 0 5 1.4 6.2 3.8 1.4 2.6 1 5.6-0.9 7.8L329.9 271c-0.4 0.4-0.5 1-0.5 1.6 0.1 0.6 0.3 1.1 0.8 1.4l10.4 8c0.9 0.7 2.2 0.5 2.9-0.3l47.7-59.6c1.3-1.6 3.1-2.5 5.1-2.6l72.7-4.1c1.1-0.1 2-1 2-2.2l-0.6-12.7c0-0.6-0.3-1.1-0.7-1.5-0.4-0.4-1-0.6-1.5-0.5l-44.5 3.2c-2.9 0.2-5.5-1.3-6.8-3.8-1.3-2.6-1-5.6 0.9-7.8l29.9-35.4c0.7-0.9 0.6-2.1-0.2-2.9l-8.3-7.6c-0.4-0.4-1-0.6-1.5-0.5-0.6 0-1.1 0.3-1.5 0.7l-48.9 58.3c-1.2 1.4-2.9 2.3-4.8 2.5l-78.7 6.9c-0.8 0.1-1.3 0.6-1.5 0.9s-0.5 0.9-0.3 1.7l2.8 11.5c0.2 1 1.2 1.7 2.2 1.6l47.2-4.4c0.1-0.2 0.4-0.2 0.6-0.2z" fill="#333333" p-id="5087"></path><path d="M383.5 300.6l40 55.9 31.5-58.2 29 70.7 50-76.5 28 66.5 24.5-66.5 29 76.5 17.7-42s-0.5-111-121.9-120-127.8 93.6-127.8 93.6z" fill="#FFFFFF" p-id="5088"></path><path d="M615.4 375.7l-28.8-76.1-24.4 66.2-28.6-68-50 76.5-28.8-70.2-30.9 57.1-42.9-59.9 0.1-0.9c0.1-1.7 3-41.9 35.4-70.1 23.1-20.1 55.1-28.8 95.1-25.8 63.8 4.7 94.2 37.8 108.5 64.7 15.4 29.1 15.7 56.6 15.7 57.8v0.5l-20.4 48.2z m-160.1-83.2l29.2 71.2 50-76.5 27.4 65 24.6-66.8 29.2 76.9 15.1-35.7c-0.1-3.8-1.4-29.2-15.2-55.2-8.7-16.4-20.6-29.8-35.4-39.8-18.5-12.6-41.7-20-68.9-22.1-38.6-2.9-69.4 5.4-91.5 24.6-28.3 24.7-33.1 59.8-33.7 65.8l37.2 51.9 32-59.3z" fill="#333333" p-id="5089"></path><path d="M378.1 431.4C372.2 415.6 398 367 398 367l34.4 42.2 15.5-47.7 31 64.5 46-67.5 39 66 21-55.5 24 56.5 29.5-34.2s6.7 45.3-24.6 61.3c-31.4 16-80.1 16.7-105.2 16-25.1-0.8-114.2 6.1-130.5-37.2z" fill="#FFFFFF" p-id="5090"></path><path d="M521.7 471.2c-4.2 0-8.6-0.1-13.1-0.2-3.1-0.1-7.3-0.1-12.2 0-34.3 0.2-105.8 0.8-120.6-38.7-6.1-16.4 17.4-61.4 20.1-66.5l1.8-3.3 33.9 41.6 16-49.3 31.8 66.2 45.8-67.2 38.4 64.9 21.4-56.5 24.9 58.5 30.5-35.3 0.8 5.4c0.1 0.5 1.7 11.9-0.6 25.4-3.1 18.2-11.9 31.5-25.4 38.4-15.3 7.9-43.5 16.6-93.5 16.6z m-18.5-5.2c2 0 3.9 0 5.5 0.1 25.9 0.7 73.8-0.3 104-15.7 22.9-11.7 24.3-40.5 23.8-52.9l-28.2 32.8-23.1-54.5-20.6 54.5-39.6-67.1-46.4 67.8-30.2-62.8-15 46.1-34.9-42.8c-7.8 15.3-22.2 47.9-18 59 13.6 36.2 82.7 35.7 115.9 35.4 2.4 0.1 4.7 0.1 6.8 0.1z" fill="#333333" p-id="5091"></path><path d="M360.5 484.1l-17.3 22.6 69.6 37.2L426 511z" fill="#FFFFFF" p-id="5092"></path><path d="M414.1 547.5l-74.7-40 20.2-26.5 69.6 28.6-15.1 37.9zM347 505.8l64.6 34.6 11.2-28-61.5-25.3-14.3 18.7z" fill="#333333" p-id="5093"></path><path d="M426 756.7c-6.8 0-12.3-5.5-12.3-12.3v-39c0-6.8 5.5-12.3 12.3-12.3 6.8 0 12.3 5.5 12.3 12.3v39c0.1 6.7-5.5 12.3-12.3 12.3z" fill="#FFFFFF" p-id="5094"></path><path d="M426 759.2c-8.2 0-14.8-6.7-14.8-14.8v-39c0-8.2 6.7-14.8 14.8-14.8 8.2 0 14.8 6.7 14.8 14.8v39c0.1 8.1-6.6 14.8-14.8 14.8z m0-63.7c-5.4 0-9.8 4.4-9.8 9.8v39c0 5.4 4.4 9.8 9.8 9.8s9.8-4.4 9.8-9.8v-39c0.1-5.4-4.3-9.8-9.8-9.8z" fill="#333333" p-id="5095"></path><path d="M598.7 756.7c-6.8 0-12.3-5.5-12.3-12.3v-39c0-6.8 5.5-12.3 12.3-12.3 6.8 0 12.3 5.5 12.3 12.3v39c0 6.7-5.5 12.3-12.3 12.3z" fill="#FFFFFF" p-id="5096"></path><path d="M598.7 759.2c-8.2 0-14.8-6.7-14.8-14.8v-39c0-8.2 6.7-14.8 14.8-14.8 8.2 0 14.8 6.7 14.8 14.8v39c0 8.1-6.6 14.8-14.8 14.8z m0-63.7c-5.4 0-9.8 4.4-9.8 9.8v39c0 5.4 4.4 9.8 9.8 9.8s9.8-4.4 9.8-9.8v-39c0-5.4-4.4-9.8-9.8-9.8z" fill="#333333" p-id="5097"></path><path d="M562.9 501h-23.8c-4.3 0-7.9-3.5-7.9-7.9 0-4.3 3.5-7.9 7.9-7.9h23.8c4.3 0 7.9 3.5 7.9 7.9s-3.6 7.9-7.9 7.9z" fill="#00FFB6" p-id="5098"></path><path d="M562.9 503.5h-23.8c-5.7 0-10.4-4.7-10.4-10.4s4.7-10.4 10.4-10.4h23.8c5.7 0 10.4 4.7 10.4 10.4s-4.7 10.4-10.4 10.4z m-23.8-15.7c-3 0-5.4 2.4-5.4 5.4s2.4 5.4 5.4 5.4h23.8c3 0 5.4-2.4 5.4-5.4s-2.4-5.4-5.4-5.4h-23.8z" fill="#333333" p-id="5099"></path><path d="M598.6 517.4l63.6-33.3 17.3 21.2-68.9 37.8z" fill="#00FFB6" p-id="5100"></path><path d="M609.4 546.6l-14.2-30.3 67.6-35.3 20.5 25.2-73.9 40.4z m-7.6-28.1l9.9 21.2 63.9-35.1-14.1-17.3-59.7 31.2z" fill="#333333" p-id="5101"></path></svg>