<?xml version="1.0" standalone="no"?><!DOCTYPE svg PUBLIC "-//W3C//DTD SVG 1.1//EN" "http://www.w3.org/Graphics/SVG/1.1/DTD/svg11.dtd"><svg t="1676179157047" class="icon" viewBox="0 0 1024 1024" version="1.1" xmlns="http://www.w3.org/2000/svg" p-id="4511" width="16" height="16" xmlns:xlink="http://www.w3.org/1999/xlink"><path d="M844 160.2L124.1 353.1c-12.1 3.2-16.1 18.3-7.3 27.2l223 223c5.9 5.9 15.2 6.4 21.6 1.2L652 372 419.5 662.6c-0.3 0.4-0.4 0.8-0.6 1.2-0.2 0.3-0.3 0.7-0.6 1-1.2 2.1-1.9 4.4-2.1 6.8-0.1 0.6-0.5 1-0.5 1.7v130.1c0 14.4 17.4 21.6 27.6 11.4l53.8-54.1 146.7 146.7c8.8 8.8 23.9 4.8 27.2-7.3l192.9-719.9c3.2-12.2-7.9-23.2-19.9-20z" fill="#2c2c2c" p-id="4512"></path></svg>